<svg width="32" height="32" viewBox="0 0 32 32" fill="none" xmlns="http://www.w3.org/2000/svg">
<rect width="32" height="32" rx="16" fill="#E9EFFF"/>
<path d="M18.857 21.082C20.7202 20.8614 22.5509 20.4217 24.311 19.772C22.8204 18.1208 21.9967 15.9745 22 13.75V13.05V13C22 11.4087 21.3678 9.88258 20.2426 8.75736C19.1174 7.63214 17.5913 7 16 7C14.4087 7 12.8826 7.63214 11.7573 8.75736C10.6321 9.88258 9.99999 11.4087 9.99999 13V13.75C10.003 15.9746 9.17898 18.121 7.68799 19.772C9.42099 20.412 11.248 20.857 13.143 21.082M18.857 21.082C16.959 21.3071 15.041 21.3071 13.143 21.082M18.857 21.082C19.0011 21.5319 19.0369 22.0094 18.9616 22.4757C18.8862 22.942 18.7018 23.384 18.4234 23.7656C18.1449 24.1472 17.7803 24.4576 17.3592 24.6716C16.9381 24.8856 16.4724 24.9972 16 24.9972C15.5276 24.9972 15.0619 24.8856 14.6408 24.6716C14.2197 24.4576 13.8551 24.1472 13.5766 23.7656C13.2982 23.384 13.1138 22.942 13.0384 22.4757C12.9631 22.0094 12.9989 21.5319 13.143 21.082" stroke="#1D2939" stroke-width="1.5" stroke-linecap="round" stroke-linejoin="round"/>
</svg>
