<svg width="25" height="24" viewBox="0 0 25 24" fill="none" xmlns="http://www.w3.org/2000/svg">
<path d="M18.107 18.7252C17.4083 17.8001 16.5042 17.0498 15.4662 16.5336C14.4281 16.0173 13.2844 15.7491 12.125 15.7502C10.9656 15.7491 9.82188 16.0173 8.78382 16.5336C7.74575 17.0498 6.84174 17.8001 6.143 18.7252M18.107 18.7252C19.4705 17.5124 20.4321 15.9137 20.8662 14.1413C21.3002 12.3688 21.1853 10.5063 20.5365 8.80067C19.8877 7.09506 18.7357 5.62697 17.2334 4.59109C15.7311 3.55521 13.9493 3.00049 12.1245 3.00049C10.2997 3.00049 8.51793 3.55521 7.0156 4.59109C5.51327 5.62697 4.36133 7.09506 3.71253 8.80067C3.06374 10.5063 2.94875 12.3688 3.38282 14.1413C3.81688 15.9137 4.7795 17.5124 6.143 18.7252M18.107 18.7252C16.461 20.1934 14.3306 21.0033 12.125 21.0002C9.91903 21.0036 7.78923 20.1936 6.143 18.7252M15.125 9.75019C15.125 10.5458 14.8089 11.3089 14.2463 11.8715C13.6837 12.4341 12.9206 12.7502 12.125 12.7502C11.3293 12.7502 10.5663 12.4341 10.0037 11.8715C9.44107 11.3089 9.125 10.5458 9.125 9.75019C9.125 8.95454 9.44107 8.19148 10.0037 7.62887C10.5663 7.06626 11.3293 6.75019 12.125 6.75019C12.9206 6.75019 13.6837 7.06626 14.2463 7.62887C14.8089 8.19148 15.125 8.95454 15.125 9.75019Z" stroke="#101828" stroke-width="1.5" stroke-linecap="round" stroke-linejoin="round"/>
</svg>
